<svg id="Layer_1" data-name="Layer 1" xmlns="http://www.w3.org/2000/svg" viewBox="0 0 324 270"><defs><style>.cls-1,.cls-2,.cls-3,.cls-4,.cls-5{fill:none;stroke-miterlimit:10;stroke-width:5px;}.cls-1{stroke:#972688;}.cls-2{stroke:#6e0d60;}.cls-3{stroke:#530c49;}.cls-4{stroke:#810e6f;}.cls-5{stroke:#91137f;}.cls-6{fill:#6e0d60;}.cls-7{fill:#530c49;}</style></defs><path class="cls-1" d="M68.53,206.49q10.47,0,20.94,0c2.28,0,2.36.17,2.73,2.15a24,24,0,0,0,3.52,9.46c.71,1,1.16.58,1.59.07a45.41,45.41,0,0,0,5-6.93c.75-1.33,1.48-2.66,2.18-4,.36-.7,1-.74,1.75-.74,4.8,0,9.61,0,14.41,0,6.14,0,12.27,0,18.41,0,1.21,0,1.82.39,2.13,1.28,1.26,3.61,2.64,7.2,3.69,10.85.65,2.3.83,4.7,1.29,7,1.27,6.38.9,12.8,1,19.21,0,2.12-1.35,3.18-3.83,3.21-3.09,0-5.8-1-8.54-2-5.62-2-10.85-4.77-16.44-6.87a27.7,27.7,0,0,0-14.23-1.27c-5.1.8-10.25,1.6-15.43,1A33.23,33.23,0,0,1,79.37,236a33.71,33.71,0,0,0-6.47-2.39,13.33,13.33,0,0,0-5.79.11c-5.34,1.24-9.71,4.07-14.42,6.36a125,125,0,0,1-15.53,6.72,57.57,57.57,0,0,1-6.64,2c-2.69.55-5.45,1.14-8.23.35-1.74-.49-2.09-1.34-1.38-2.81a126.25,126.25,0,0,1,7.19-12.4c5.22-8.25,10.44-16.5,15.44-24.85,1.25-2.1,2.67-2.79,5.38-2.71,6.53.19,13.07.06,19.61.06Z"/><path class="cls-1" d="M225.28,213.32c1.05-2,.88-3.87.83-5.72,0-.86.33-1.1,1.31-1.1q25.94,0,51.88-.05a1.85,1.85,0,0,1,1.84,1c6.82,11.32,13.6,22.65,20.05,34.12.72,1.29,1.24,2.67,2,3.93a1.41,1.41,0,0,1-.3,1.87c-.5.56-1.27.36-1.85.2a59,59,0,0,1-6.65-2.36c-4.77-2-9-4.79-14-6.45-5.09-1.71-9.72-4.21-14.8-5.91-2.77-.92-5.66-1.5-8.53-2.17a22.71,22.71,0,0,0-7.25-.35,75.77,75.77,0,0,0-8,1.17c-4.3.82-8.23,2.47-12.36,3.66a18.57,18.57,0,0,1-7,1c-2.09-.22-4.15-.65-6.22-1a24.77,24.77,0,0,0-7.64,0c-6.83,1-12.78,3.92-19.11,6-2,.66-4,1.35-5.94,2-1.55.53-2.63.06-2.69-1.36a14.37,14.37,0,0,1,.28-5.1,2.62,2.62,0,0,0,.12-.68,79.3,79.3,0,0,1,1.25-9.57,93.92,93.92,0,0,1,2.11-9.88,83.08,83.08,0,0,1,3.21-8.77,1.94,1.94,0,0,1,2.13-1.28q13.94.09,27.88,0a2.93,2.93,0,0,1,2.45,1.05c1.43,1.68,2.88,3.35,4.33,5C224.8,212.81,225,213,225.28,213.32Z"/><path class="cls-2" d="M118.23,124.14c-5.53,0-11.93,0-18.33,0-2,0-2.27-.3-1.3-1.84q7.25-11.44,14.54-22.88a2.56,2.56,0,0,1,2.46-1.23c4.53.06,9.08-.11,13.6.11,12.4.6,24.81,0,37.2.45,15.69.54,31.38.23,47.07.36a2.57,2.57,0,0,1,2.44,1.26q7.31,12,14.59,24c.77,1.26.5,1.7-1.2,1.55-4.56-.4-9.14-.26-13.71-.34-2.45,0-4.9,0-7.34-.06-12.13-.49-24.27-.12-36.39-.55-9.74-.34-19.49.13-29.19-.42C134.8,124.1,127,124.6,118.23,124.14Z"/><path class="cls-3" d="M145.61,73.57c4,0,8.1-.15,12.14,0,13.46.58,26.92.19,40.39.29a2.34,2.34,0,0,1,2.28,1.21q5.78,9.51,11.59,19c.19.3.37.61.54.92.32.59,0,.87-.66.92-.36,0-.71,0-1.07,0-5.29,0-10.6.11-15.87-.18-9.46-.51-18.94,0-28.38-.48-8.44-.42-16.89,0-25.31-.44-7.51-.42-15-.15-22.51-.37-2-.06-2.14-.33-1.2-1.84,3.65-5.78,7.33-11.55,11-17.33a3.71,3.71,0,0,1,3.62-1.82c4.49.1,9,0,13.47,0Z"/><path class="cls-4" d="M147.71,149.87a159.59,159.59,0,0,1,10.78-13.34c1.55-1.77,3.41-3.34,4.87-5.17.3-.37,1.07-.39,1.09-1a.72.72,0,0,0-.73-.1A128.26,128.26,0,0,0,143.23,138c-3.31,1.69-5.75,4.3-8.35,6.71a6.81,6.81,0,0,1-2,1.71,4.56,4.56,0,0,1,0-2.66c.52-1.84.57-3.73,1-5.57a19,19,0,0,1,4.7-8.59,3.91,3.91,0,0,1,3.22-1.23c22.45.54,44.9.36,67.35.52,2.07,0,2.19.33,1.81,2.06a31.67,31.67,0,0,0-.53,5.33,59.28,59.28,0,0,0,.21,7.42c0,.41.26,1-.15,1.18s-.95-.18-1.38-.45a114.08,114.08,0,0,0-11.83-6.56,46.54,46.54,0,0,0-12.62-4.15,61,61,0,0,0-12.3-.82c-.54,0-1.3-.25-1.55.31s.46.91.92,1.22c5.5,3.83,10.43,8.21,15.8,12.17a38.55,38.55,0,0,1,3.74,3.71c.46.44.22.8-.5.75a3.38,3.38,0,0,0-2.95.93,1.88,1.88,0,0,1-1.19.45c-1.74,0-3.25.67-4.86,1.05-1.46.34-1.61.87-.61,1.82s.89,2.11,1.94,2.92c.4.3-.08.61-.54.64-.79,0-1.59.09-2.39.09l-18.81,0c-.33,0-.72.1-1-.26a45.54,45.54,0,0,1,6-2.44,53.73,53.73,0,0,0,9.26-4.45c1.43-.88,3.35-1.07,4.89-1.88.31-.17.9-.07.82-.58s-.57-.71-1.08-.87a15.85,15.85,0,0,0-4.85-.58c-2.44,0-4.89.11-7.33.07-3.56-.05-7.1.32-10.64.56a46.53,46.53,0,0,0-7.82,1.67C148.9,150.18,148.19,150.46,147.71,149.87Z"/><path class="cls-5" d="M98.84,184.56c-1.23,2-2.53,4-3.7,6.1a31.53,31.53,0,0,0-4,10.71.82.82,0,0,1-.78.78,10.13,10.13,0,0,1-1.46.08H49.94c-1.57-.05-1.84-.43-1.11-1.59l6.75-10.68C61,181.3,66.49,172.68,71.88,164a3.23,3.23,0,0,1,3.24-1.67c8.4.36,16.8.21,25.2.27a3.1,3.1,0,0,1,1.41.22c.75.39,1.89.69,2,1.35s-1.23.64-1.78,1.11c-.06,0-.18,0-.24.1-3,2.51-7,3.6-10.69,5.22a34,34,0,0,0-11.55,8.78,64.09,64.09,0,0,0-10.07,15.54c-.2.42-.44,1-.09,1.31s1,.08,1.47,0a44.51,44.51,0,0,0,11.39-4c3-1.64,6-3.43,9-5.09,2.08-1.14,4.22-2.17,6.33-3.25C98.26,183.67,99,183.45,98.84,184.56Z"/><path class="cls-5" d="M236.84,165.37h3.36a38.18,38.18,0,0,0,9.29-1.56c1-.27,2.12-.48,3.19-.68a1.93,1.93,0,0,1,2.25,1l22.6,37.34c.58,1,.36,1.29-.93,1.29-2.49,0-5-.06-7.47-.12-13.74-.34-27.48-.14-41.22-.21-1.78,0-1.78,0-1.78-1.58,0-1.25.08-2.52,0-3.76-.32-3.51-.7-7-1.12-10.5-.08-.68-.69-1.3-.26-2.16.63.57,1.21,1,1.72,1.58,4.6,4.67,10.38,8.08,16.45,11.14a30.8,30.8,0,0,0,5.35,1.56c.59.17.9,0,.63-.65-1.69-4.12-3.93-8-5.79-12.1a4.47,4.47,0,0,0-1.41-1.59c-2.29-1.75-3.92-4-6-6-1.2-1.12-2.17-2.38-3.28-3.55-.18-.19-.55-.42-.26-.67s.62-.07,1,.06a38.33,38.33,0,0,1,5.22,2.57c2.89,1.63,6.18,2.6,9.07,4.19a30.38,30.38,0,0,0,7.84,3c1.9.42,3.8.86,5.67,1.39.3.09.77.23.94-.14s0-.72-.29-1.06a43.25,43.25,0,0,0-4.62-5.07A65,65,0,0,0,247,171a52.21,52.21,0,0,0-7.4-3.82A6.6,6.6,0,0,1,236.84,165.37Z"/><path class="cls-3" d="M164.91,53.87c6.81,0,13.61,0,20.41,0a3,3,0,0,1,3,1.51c2.94,4.82,5.93,9.61,8.9,14.41.72,1.15.56,1.42-.93,1.41-4.49,0-9,.13-13.47-.13-9.77-.57-19.56-.06-29.31-.47-6.58-.27-13.14-.25-19.72-.35-1.48,0-1.65-.26-.9-1.43,2.69-4.2,5.42-8.38,8.12-12.57a8,8,0,0,0,.56-.91,2.58,2.58,0,0,1,2.72-1.42c6.89,0,13.78,0,20.67,0Z"/><path class="cls-5" d="M179.69,184.08a138.45,138.45,0,0,0-7.2,12.81c-.64,1.36-1.29,2.72-1.84,4.11a1.87,1.87,0,0,1-2,1.32c-3.16,0-6.32,0-9.47,0a2.29,2.29,0,0,1-2.32-1.53,65.72,65.72,0,0,0-11.68-17.31c-.22-.24-.57-.47-.36-.79s.57,0,.83,0a29.41,29.41,0,0,0,6.56.52c1.49-.07,1.64-.35,1-1.51s-1.2-2.46-1.76-3.7a.46.46,0,0,1,.09-.63c2.42.63,4.91.39,7.36.45a24.39,24.39,0,0,0,8.85-1.06c1.43-.51,1.73-.35.76-1.78-2.08-3.08-5.47-5-8.49-7.3a42.18,42.18,0,0,0-7.09-4.32c-.19-.08-.31-.27-.46-.41.25-.39.65-.23,1-.22q12.26.14,24.53.31c.37,0,.93-.12,1,.28s-.34.57-.63.8a31.39,31.39,0,0,1-4,2.61,13.19,13.19,0,0,0-2.16,1.46c-2,1.79-1.21,3.16,1.05,3.9a18.54,18.54,0,0,0,6.06,1,15.41,15.41,0,0,1,4.07.46l.81.58c1.62,1.07,1.36,1.34.48,2.37a50.4,50.4,0,0,0-4.6,6.37A1.75,1.75,0,0,0,179.69,184.08Z"/><path class="cls-4" d="M94.13,158.4c-.41,0-.7.09-1,.09l-15.87-.06c-1.37,0-1.6-.34-.94-1.37q6.69-10.45,13.4-20.89c1.46-2.29,3-4.56,4.37-6.88A2.62,2.62,0,0,1,96.62,128c10,.11,20.07.51,30.12.4.38,0,.85-.1,1,.32s-.24.56-.44.77a56.47,56.47,0,0,0-7.9,11.55,3.58,3.58,0,0,1-.81.95,18.93,18.93,0,0,0-8.23-4.62c-1.36-.38-1.38.82-1.61,1.44-1.28,3.63-1.28,7.37-1.14,11.12,0,.85.2,1.39-1.37,1-2-.53-4.19-.8-6.29-1.15a54.76,54.76,0,0,0-10.31-.4c-1.74,0-2.21.8-1.4,2.15a29.49,29.49,0,0,0,4.79,5.61A3.59,3.59,0,0,1,94.13,158.4Z"/><path class="cls-3" d="M164.4,49.16h-17c-1.91,0-2.15-.29-1.25-1.69,3.26-5.05,6.62-10.06,9.84-15.14,2.08-3.27,4.4-6.43,6.53-9.67a7,7,0,0,1,1-1.23,2.56,2.56,0,0,1,4.11.16,42.59,42.59,0,0,1,3,4.18c3.69,6,7.31,12.09,11,18.13.84,1.38,1.75,2.73,2.6,4.11s.43,1.74-1.17,1.56C176.66,48.85,170.3,49.48,164.4,49.16Z"/><path class="cls-4" d="M247.92,153.25A35.67,35.67,0,0,0,234.2,152a15.71,15.71,0,0,1,2.42-2.63c1.26-1.14,2.38-2.38,3.54-3.6.53-.55.5-.85-.28-1.06a16.72,16.72,0,0,0-8.17-.55,31,31,0,0,0-3.92.94c-.7.25-.85-.39-1-.78a76.34,76.34,0,0,0-6.25-10.93,43.77,43.77,0,0,0-2.89-3.36c-.6-.68-.34-1.06.58-1a11.17,11.17,0,0,1,3.55.15c.94.31,1.93-.12,2.9-.14,2.36,0,4.71,0,7.07,0a2.76,2.76,0,0,1,2.63,1.55c4.43,7.32,8.93,14.6,13.43,21.89A.84.84,0,0,1,247.92,153.25Z"/><path class="cls-5" d="M122.8,202.24H108.93c-1.85,0-2-.2-1.24-1.6a99.9,99.9,0,0,1,8.63-13.42,3.66,3.66,0,0,1,.54-.64,1,1,0,0,1,.67-.27c.32,0,.24.37.23.58a18.8,18.8,0,0,0,.58,5.63,30.91,30.91,0,0,0,1.91,4.59c.4.85.81.5,1.25.1a14.93,14.93,0,0,0,3.19-4.33c1-1.82,1.85-3.68,2.8-5.51.15-.29.47-.72.72-.72.41,0,.61.43.83.77,2.79,4.42,5.6,8.84,8.64,13.15.31.43.87.89.57,1.38s-1.13.32-1.73.32H122.8Z"/><path class="cls-5" d="M203.31,202.34c-3.82,0-7.64,0-11.46,0-1.09,0-1.49-.2-1-1.18,1.73-3.4,3.37-6.82,5.08-10.23.6-1.2,1.27-2.38,1.94-3.56.24-.42.42-1,1.13-.91s.77.64,1,1.12a40.44,40.44,0,0,0,2.64,5.87c.54.95.89.65,1.41,0a27.16,27.16,0,0,0,3.86-5.28,1.9,1.9,0,0,1,.69-.79c.39-.24,1-.37,1,.32.19,2,1.55,3.72,2.34,5.58a57.67,57.67,0,0,0,3.92,8.07c.42.68.17,1-.82,1-3.91,0-7.82,0-11.73,0Z"/><path class="cls-1" d="M163.9,218.82c-1.29-3.76-2.34-7.37-3.86-10.88-.53-1.22-.28-1.42,1.27-1.42,1.78,0,3.56,0,5.33,0,1.5,0,1.74.25,1.22,1.46-.64,1.49-1.11,3-1.62,4.52A37.33,37.33,0,0,1,163.9,218.82Z"/><path class="cls-6" d="M179.69,184.08a1.75,1.75,0,0,1,.43-1.17,50.4,50.4,0,0,1,4.6-6.37c.88-1,1.14-1.3-.48-2.37l-.81-.58c1.21-.17,1.8,1.07,3,1,.33,0,.21.38.06.55-2.5,2.83-4.4,6-6.71,8.92C179.78,184.06,179.73,184.07,179.69,184.08Z"/><path class="cls-7" d="M98.84,184.56c.17-1.11-.58-.89-1.33-.68.24-.22.44-.53.74-.64.56-.22,1.25-.94,1.72-.39s-.25,1.1-.8,1.51Z"/><path class="cls-7" d="M147.71,149.87c.48.59,1.19.31,1.82.33-.51.78-1.56.54-2.3.9-.26.12-.49-.14-.34-.42S147.17,150,147.71,149.87Z"/></svg>