<svg id="Layer_1" data-name="Layer 1" xmlns="http://www.w3.org/2000/svg" viewBox="0 0 324 270"><defs><style>.cls-1{fill:#972688;}.cls-2{fill:#6e0d60;}.cls-3{fill:#530c49;}.cls-4{fill:#810e6f;}.cls-5{fill:#91137f;}</style></defs><path class="cls-1" d="M68.53,206H89.47c2.28,0,2.36.18,2.73,2.16a24,24,0,0,0,3.52,9.46c.71,1,1.16.58,1.59.07a45.91,45.91,0,0,0,5-6.93q1.13-2,2.18-4c.36-.7,1-.74,1.75-.74h14.41c6.14,0,12.27,0,18.41,0,1.21,0,1.82.4,2.13,1.29,1.26,3.61,2.64,7.2,3.69,10.85.65,2.3.83,4.7,1.29,7,1.27,6.38.9,12.8,1,19.21,0,2.12-1.35,3.18-3.83,3.21-3.09.05-5.8-1-8.54-2-5.62-2-10.85-4.78-16.44-6.87a27.7,27.7,0,0,0-14.23-1.27c-5.1.79-10.25,1.6-15.43,1a33.23,33.23,0,0,1-9.31-2.87,33.71,33.71,0,0,0-6.47-2.39,13.33,13.33,0,0,0-5.79.1c-5.34,1.25-9.71,4.08-14.42,6.37a125,125,0,0,1-15.53,6.72,57.57,57.57,0,0,1-6.64,2c-2.69.55-5.45,1.14-8.23.35-1.74-.49-2.09-1.34-1.38-2.82a127.27,127.27,0,0,1,7.19-12.39c5.22-8.25,10.44-16.5,15.44-24.85,1.25-2.1,2.67-2.79,5.38-2.71,6.53.19,13.07.06,19.61.06Z"/><path class="cls-1" d="M225.28,212.87c1.05-2,.88-3.88.83-5.73,0-.86.33-1.09,1.31-1.09q25.94,0,51.88-.06a1.88,1.88,0,0,1,1.84,1c6.82,11.32,13.6,22.65,20.05,34.12.72,1.29,1.24,2.66,2,3.93a1.41,1.41,0,0,1-.3,1.87c-.5.56-1.27.36-1.85.2a59,59,0,0,1-6.65-2.36c-4.77-2-9-4.79-14-6.45-5.09-1.71-9.72-4.21-14.8-5.91-2.77-.92-5.66-1.5-8.53-2.17a22.71,22.71,0,0,0-7.25-.35,78.4,78.4,0,0,0-8,1.16c-4.3.82-8.23,2.48-12.36,3.67a18.37,18.37,0,0,1-7,1c-2.09-.21-4.15-.64-6.22-1a25.09,25.09,0,0,0-7.64,0c-6.83.95-12.78,3.91-19.11,6-2,.66-4,1.35-5.94,2-1.55.53-2.63.06-2.69-1.36a14.43,14.43,0,0,1,.28-5.11,2.48,2.48,0,0,0,.12-.67,79.3,79.3,0,0,1,1.25-9.57,93.92,93.92,0,0,1,2.11-9.88,83.08,83.08,0,0,1,3.21-8.77,1.94,1.94,0,0,1,2.13-1.28q13.94.08,27.88,0a2.9,2.9,0,0,1,2.45,1c1.43,1.68,2.88,3.35,4.33,5C224.8,212.36,225,212.58,225.28,212.87Z"/><path class="cls-2" d="M118.23,123.69H99.9c-2,0-2.27-.3-1.3-1.84q7.25-11.44,14.54-22.88a2.56,2.56,0,0,1,2.46-1.23c4.53.06,9.08-.11,13.6.11,12.4.6,24.81,0,37.2.45,15.69.54,31.38.23,47.07.36a2.57,2.57,0,0,1,2.44,1.26q7.31,12,14.59,24c.77,1.26.5,1.7-1.2,1.55-4.56-.4-9.14-.26-13.71-.34-2.45,0-4.9,0-7.34-.06-12.13-.49-24.27-.12-36.39-.55-9.74-.35-19.49.13-29.19-.42C134.8,123.65,127,124.15,118.23,123.69Z"/><path class="cls-3" d="M145.61,73.11c4,0,8.1-.14,12.14,0,13.46.58,26.92.19,40.39.29a2.32,2.32,0,0,1,2.28,1.21q5.78,9.51,11.59,19c.19.3.37.61.54.92.32.59,0,.86-.66.92-.36,0-.71,0-1.07,0-5.29,0-10.6.11-15.87-.18-9.46-.51-18.94,0-28.38-.48-8.44-.42-16.89,0-25.31-.44-7.51-.43-15-.15-22.51-.38-2-.05-2.14-.32-1.2-1.83,3.65-5.78,7.33-11.55,11-17.33A3.71,3.71,0,0,1,132.14,73c4.49.1,9,0,13.47,0Z"/><path class="cls-4" d="M147.71,149.42a159.59,159.59,0,0,1,10.78-13.34c1.55-1.78,3.41-3.34,4.87-5.17.3-.37,1.07-.39,1.09-1a.72.72,0,0,0-.73-.1,128.26,128.26,0,0,0-20.49,7.78c-3.31,1.68-5.75,4.3-8.35,6.71a6.81,6.81,0,0,1-2,1.71,4.56,4.56,0,0,1,0-2.66c.52-1.84.57-3.74,1-5.57a19,19,0,0,1,4.7-8.59,3.91,3.91,0,0,1,3.22-1.23c22.45.54,44.9.36,67.35.52,2.07,0,2.19.33,1.81,2.06a31.67,31.67,0,0,0-.53,5.33,59.33,59.33,0,0,0,.21,7.42c0,.41.26,1-.15,1.18s-.95-.18-1.38-.45a114.08,114.08,0,0,0-11.83-6.56,46.54,46.54,0,0,0-12.62-4.15,61,61,0,0,0-12.3-.82c-.54,0-1.3-.25-1.55.31s.46.91.92,1.22c5.5,3.83,10.43,8.21,15.8,12.16a39.81,39.81,0,0,1,3.74,3.72c.46.44.22.8-.5.74a3.44,3.44,0,0,0-2.95.93,1.77,1.77,0,0,1-1.19.45c-1.74,0-3.25.68-4.86,1.06-1.46.34-1.61.87-.61,1.82s.89,2.11,1.94,2.91c.4.31-.08.62-.54.65-.79.05-1.59.09-2.39.09q-9.4,0-18.81,0c-.33,0-.72.1-1-.26a45.54,45.54,0,0,1,6-2.44,53.73,53.73,0,0,0,9.26-4.45c1.43-.88,3.35-1.07,4.89-1.88.31-.17.9-.07.82-.58s-.57-.71-1.08-.87a15.85,15.85,0,0,0-4.85-.58c-2.44,0-4.89.1-7.33.07-3.56-.05-7.1.32-10.64.56a46.53,46.53,0,0,0-7.82,1.67C148.9,149.73,148.19,150,147.71,149.42Z"/><path class="cls-5" d="M98.84,184.11c-1.23,2-2.53,4-3.7,6.09a31.58,31.58,0,0,0-4,10.72.82.82,0,0,1-.78.78,10.13,10.13,0,0,1-1.46.08l-38.42,0c-.17,0-.35,0-.53,0-1.57-.06-1.84-.43-1.11-1.59l6.75-10.69c5.44-8.63,10.91-17.25,16.3-25.91a3.23,3.23,0,0,1,3.24-1.67c8.4.36,16.8.2,25.2.27a3,3,0,0,1,1.41.22c.75.39,1.89.68,2,1.35s-1.23.64-1.78,1.11c-.06.05-.18.05-.24.1-3,2.51-7,3.6-10.69,5.22A34,34,0,0,0,79.45,179a63.9,63.9,0,0,0-10.07,15.54c-.2.42-.44,1-.09,1.31s1,.08,1.47,0a44.11,44.11,0,0,0,11.39-4c3-1.64,6-3.43,9-5.09,2.08-1.14,4.22-2.17,6.33-3.26C98.26,183.22,99,183,98.84,184.11Z"/><path class="cls-5" d="M236.84,164.92c1.33,0,2.35,0,3.36,0a38.18,38.18,0,0,0,9.29-1.56c1-.27,2.12-.48,3.19-.69a1.94,1.94,0,0,1,2.25,1L277.53,201c.58.95.36,1.29-.93,1.29-2.49,0-5-.06-7.47-.12-13.74-.35-27.48-.14-41.22-.21-1.78,0-1.78,0-1.78-1.58,0-1.25.08-2.52,0-3.77-.32-3.5-.7-7-1.12-10.5-.08-.67-.69-1.29-.26-2.15.63.57,1.21,1.05,1.72,1.57,4.6,4.68,10.38,8.09,16.45,11.15a31.7,31.7,0,0,0,5.35,1.56c.59.17.9,0,.63-.65-1.69-4.12-3.93-8-5.79-12.1a4.47,4.47,0,0,0-1.41-1.59c-2.29-1.76-3.92-4-6-5.95-1.2-1.12-2.17-2.38-3.28-3.55-.18-.19-.55-.42-.26-.68s.62-.06,1,.07a38.28,38.28,0,0,1,5.22,2.56c2.89,1.64,6.18,2.61,9.07,4.19a29.68,29.68,0,0,0,7.84,3c1.9.43,3.8.87,5.67,1.4.3.09.77.23.94-.14s0-.72-.29-1.06a43.25,43.25,0,0,0-4.62-5.07,64.43,64.43,0,0,0-9.93-8.13,52.21,52.21,0,0,0-7.4-3.82A6.6,6.6,0,0,1,236.84,164.92Z"/><path class="cls-3" d="M164.91,53.42c6.81,0,13.61,0,20.41,0a3,3,0,0,1,3,1.51c2.94,4.82,5.93,9.61,8.9,14.41.72,1.15.56,1.42-.93,1.41-4.49,0-9,.13-13.47-.14-9.77-.57-19.56,0-29.31-.46-6.58-.27-13.14-.25-19.72-.35-1.48,0-1.65-.26-.9-1.43,2.69-4.2,5.42-8.39,8.12-12.58a7.07,7.07,0,0,0,.56-.9,2.58,2.58,0,0,1,2.72-1.42c6.89,0,13.78,0,20.67,0Z"/><path class="cls-5" d="M179.69,183.63a138.45,138.45,0,0,0-7.2,12.81c-.64,1.36-1.29,2.72-1.84,4.11a1.87,1.87,0,0,1-2,1.32c-3.16,0-6.32,0-9.47,0a2.3,2.3,0,0,1-2.32-1.53A65.77,65.77,0,0,0,145.18,183c-.22-.23-.57-.46-.36-.78s.57,0,.83,0a29.41,29.41,0,0,0,6.56.52c1.49-.08,1.64-.35,1-1.51s-1.2-2.46-1.76-3.7a.48.48,0,0,1,.09-.64c2.42.64,4.91.4,7.36.46a24.4,24.4,0,0,0,8.85-1.07c1.43-.5,1.73-.35.76-1.77-2.08-3.09-5.47-5-8.49-7.3a42.18,42.18,0,0,0-7.09-4.32c-.19-.08-.31-.27-.46-.41.25-.39.65-.23,1-.22q12.26.14,24.53.31c.37,0,.93-.12,1,.28s-.34.56-.63.8a30.26,30.26,0,0,1-4,2.6,14.58,14.58,0,0,0-2.16,1.46c-2,1.8-1.21,3.17,1.05,3.91a18.54,18.54,0,0,0,6.06,1,15.41,15.41,0,0,1,4.07.46l.81.58c1.62,1.07,1.36,1.34.48,2.37a50.4,50.4,0,0,0-4.6,6.37A1.75,1.75,0,0,0,179.69,183.63Z"/><path class="cls-4" d="M94.13,158c-.41,0-.7.09-1,.09L77.26,158c-1.37,0-1.6-.34-.94-1.37q6.69-10.46,13.4-20.9c1.46-2.28,3-4.56,4.37-6.87a2.62,2.62,0,0,1,2.53-1.31c10,.1,20.07.51,30.12.4.38,0,.85-.1,1,.32s-.24.56-.44.77a56.47,56.47,0,0,0-7.9,11.55,3.58,3.58,0,0,1-.81,1,18.83,18.83,0,0,0-8.23-4.62c-1.36-.39-1.38.81-1.61,1.44-1.28,3.63-1.28,7.37-1.14,11.12,0,.85.2,1.39-1.37,1-2-.53-4.19-.8-6.29-1.15a53.13,53.13,0,0,0-10.31-.4c-1.74,0-2.21.8-1.4,2.15a29.81,29.81,0,0,0,4.79,5.61A3.59,3.59,0,0,1,94.13,158Z"/><path class="cls-3" d="M164.4,49.61h-17c-1.91,0-2.15-.29-1.25-1.69,3.26-5,6.62-10.06,9.84-15.14,2.08-3.27,4.4-6.42,6.53-9.67a7,7,0,0,1,1-1.23,2.56,2.56,0,0,1,4.11.16,42.59,42.59,0,0,1,3,4.18c3.69,6,7.31,12.09,11,18.13.84,1.38,1.75,2.73,2.6,4.11s.43,1.74-1.17,1.56C176.66,49.3,170.3,49.94,164.4,49.61Z"/><path class="cls-4" d="M247.92,152.8a35.67,35.67,0,0,0-13.72-1.23,15.71,15.71,0,0,1,2.42-2.63c1.26-1.14,2.38-2.38,3.54-3.6.53-.55.5-.85-.28-1.06a16.72,16.72,0,0,0-8.17-.55,32.84,32.84,0,0,0-3.92.93c-.7.26-.85-.38-1-.77A75.8,75.8,0,0,0,220.49,133a43.77,43.77,0,0,0-2.89-3.36c-.6-.68-.34-1.06.58-1a11.46,11.46,0,0,1,3.55.14c.94.32,1.93-.11,2.9-.13,2.36,0,4.71,0,7.07,0a2.76,2.76,0,0,1,2.63,1.54c4.43,7.32,8.93,14.61,13.43,21.9A.84.84,0,0,1,247.92,152.8Z"/><path class="cls-5" d="M122.8,201.79c-4.62,0-9.25,0-13.87,0-1.85,0-2-.2-1.24-1.6a99.9,99.9,0,0,1,8.63-13.42,3.66,3.66,0,0,1,.54-.64,1,1,0,0,1,.67-.27c.32,0,.24.37.23.57a18.84,18.84,0,0,0,.58,5.64,30.91,30.91,0,0,0,1.91,4.59c.4.85.81.49,1.25.1a14.93,14.93,0,0,0,3.19-4.33c1-1.82,1.85-3.68,2.8-5.51.15-.29.47-.72.72-.72.41,0,.61.43.83.77,2.79,4.42,5.6,8.84,8.64,13.15.31.43.87.89.57,1.38s-1.13.32-1.73.32H122.8Z"/><path class="cls-5" d="M203.31,201.89c-3.82,0-7.64,0-11.46,0-1.09,0-1.49-.2-1-1.18,1.73-3.4,3.37-6.82,5.08-10.23.6-1.2,1.27-2.38,1.94-3.56.24-.42.42-1,1.13-.91s.77.64,1,1.12A40.44,40.44,0,0,0,202.6,193c.54,1,.89.65,1.41,0a27.16,27.16,0,0,0,3.86-5.28,1.79,1.79,0,0,1,.69-.79c.39-.25,1-.38,1,.31.19,2,1.55,3.73,2.34,5.58a57.25,57.25,0,0,0,3.92,8.08c.42.68.17,1-.82,1-3.91,0-7.82,0-11.73,0Z"/><path class="cls-1" d="M163.9,218.37c-1.29-3.76-2.34-7.38-3.86-10.88-.53-1.22-.28-1.42,1.27-1.43h5.33c1.5,0,1.74.25,1.22,1.46-.64,1.49-1.11,3-1.62,4.52A37.33,37.33,0,0,1,163.9,218.37Z"/><path class="cls-2" d="M179.69,183.63a1.75,1.75,0,0,1,.43-1.17,50.4,50.4,0,0,1,4.6-6.37c.88-1,1.14-1.3-.48-2.37l-.81-.58c1.21-.17,1.8,1.07,3,1,.33,0,.21.38.06.55-2.5,2.83-4.4,6-6.71,8.92C179.78,183.61,179.73,183.62,179.69,183.63Z"/><path class="cls-3" d="M98.84,184.11c.17-1.11-.58-.89-1.33-.69.24-.21.44-.52.74-.63.56-.22,1.25-.94,1.72-.39s-.25,1.1-.8,1.51Z"/><path class="cls-3" d="M147.71,149.42c.48.59,1.19.31,1.82.33-.51.78-1.56.54-2.3.89-.26.13-.49-.13-.34-.41S147.17,149.5,147.71,149.42Z"/></svg>