<?xml version="1.0" encoding="utf-8"?>
<!-- Generator: Adobe Illustrator 24.3.0, SVG Export Plug-In . SVG Version: 6.00 Build 0)  -->
<svg version="1.1" id="Layer_1" xmlns="http://www.w3.org/2000/svg" xmlns:xlink="http://www.w3.org/1999/xlink" x="0px" y="0px"
	 viewBox="0 0 188 204" style="enable-background:new 0 0 188 204;" xml:space="preserve">
<style type="text/css">
	.st0{fill:#FB9FEF;}
	.st1{fill:#5A0B5E;}
	.st2{fill:#771A7A;}
	.st3{fill:#A82DA8;}
</style>
<g>
	<path class="st0" d="M106.1,149.7c-2.6,0-5.3,0.1-7.9,0c-8.2-0.3-16.5-0.1-24.7-0.1c-0.6,0-0.7-0.2-0.6-0.7
		c0.4-1.2,0.7-2.3,1.1-3.5c0.4-1.2,0.6-2.4,1-3.5c0.3-1.1,0.7-2.1,1-3.2c0.2-0.8,0.5-1.6,0.7-2.4c0.2-0.9,0.6-1.8,0.8-2.7
		c0.2-1.2,0.7-2.3,1-3.4c0.1-0.5,0.2-1,0.4-1.3c0.4-0.5,0-1.2-0.9-1.8c-2.5-1.7-4.6-3.9-6.3-6.4c-1-1.4-1.8-2.9-2.4-4.5
		c-0.4-1-0.7-2.1-1-3.2c-0.7-2.4-1-4.9-0.7-7.5c0.1-1.5,0.4-3,0.7-4.5c0.5-2.1,1.3-4.1,2.4-6c1.5-2.6,3.5-5,5.9-7
		c1.9-1.5,4-2.9,6.2-4c1.1-0.5,2.2-0.9,3.3-1.2c1.5-0.4,2.9-0.7,4.4-1c1-0.1,2.1-0.1,3.2-0.1c1.2-0.1,2.4,0,3.6,0.1
		c1.2,0.1,2.4,0.4,3.6,0.7c1,0.3,1.9,0.5,2.8,0.9c1.6,0.6,3.2,1.3,4.7,2.3c2,1.2,3.8,2.7,5.4,4.4c1.7,1.8,3.2,3.9,4.3,6.1
		c0.7,1.3,1.2,2.7,1.6,4.1c0.3,1.1,0.5,2.3,0.7,3.4c0.1,1.3,0.2,2.5,0.2,3.7c0,1.7-0.2,3.5-0.6,5.1c-1.4,5.7-4.7,10.7-9.4,14.3
		c-0.1,0.1-0.2,0.2-0.4,0.2c-1,0.6-1.1,1.1-0.6,2.3c0.3,0.7,0.4,1.5,0.7,2.3c0.4,1.2,0.6,2.4,1,3.5c0.2,0.8,0.5,1.6,0.7,2.4
		c0.2,0.9,0.6,1.6,0.7,2.5c0.1,0.9,0.4,1.6,0.7,2.4s0.4,1.7,0.7,2.6c0.2,0.7,0.5,1.5,0.7,2.3c0.1,0.6,0.3,1.2,0.5,1.7
		c0.2,0.6,0.1,0.9-0.6,0.9h-8.8v-0.1L106.1,149.7L106.1,149.7z"/>
	<path class="st1" d="M94.2,203.8c-11.8,0-23.8,0-35.7,0c-1.1,0-1.3-0.5-1-1.5c0.3-0.8,0.5-1.6,0.7-2.5c0.1-0.8,0.5-1.5,0.7-2.3
		c0.2-0.9,0.5-1.8,0.7-2.6c0.2-0.7,0.4-1.5,0.7-2.3c0.2-0.5,0.2-1,0.4-1.6c0.4-1.1,0.7-2.3,1-3.4c0.1-0.5,0.3-1,0.4-1.5
		c0.2-0.9,0.5-1.8,0.7-2.6c0.1-0.5,0.3-1,0.4-1.5c0.1-0.4,0.2-0.4,0.5-0.4h59.6c1.4,0,1.6,0.2,1.8,1.5c0.1,0.9,0.4,1.7,0.7,2.5
		c0.1,0.5,0.4,1,0.4,1.6c0.1,0.9,0.5,1.6,0.7,2.5c0.2,0.9,0.4,1.8,0.7,2.6c0.2,0.8,0.5,1.5,0.7,2.4c0.2,0.8,0.5,1.7,0.7,2.6
		c0.2,0.9,0.4,1.6,0.7,2.4c0.2,0.7,0.5,1.7,0.7,2.6c0.1,0.1,0,0.2,0.1,0.4c0.4,1,0.2,1.2-0.9,1.2L94.2,203.8z"/>
	<path class="st2" d="M94.2,179.7H65.1c-0.9,0-1-0.1-0.8-0.9c0.3-1.2,0.7-2.3,1-3.5c0.4-1.2,0.6-2.3,1-3.4c0.2-0.8,0.4-1.6,0.7-2.4
		c0.3-0.8,0.4-1.6,0.7-2.4c0.2-0.6,0.3-1.2,0.5-1.8c0.1-0.4,0.5-0.7,0.9-0.6c1.6,0,37.9,0.2,49.8,0.2c1.3,0,1.3,0.1,1.5,1.3
		c0.2,1,0.6,1.8,0.8,2.7c0.2,1.2,0.7,2.4,1,3.5c0.1,0.8,0.5,1.5,0.7,2.3c0.2,0.9,0.5,1.7,0.7,2.6c0.1,0.5,0.2,1,0.4,1.5
		c0.3,0.8,0.3,0.9-0.7,0.9H94.2z"/>
	<path class="st3" d="M70.2,162.8c-1.3,0-1.3-0.1-0.9-1.3c0.4-1.2,0.7-2.4,1.1-3.6c0.4-1.2,0.7-2.4,1-3.5c0.2-0.7,0.5-1.5,0.7-2.3
		c0-0.4,0.3-0.6,0.7-0.6h0.1h0.9c7.1,0.1,35.1,0.1,41.9,0.2c0.6,0,0.8,0.2,0.9,0.7c0.2,1.2,0.7,2.4,1,3.5c0.2,0.8,0.4,1.6,0.7,2.4
		c0.3,1.2,0.7,2.3,1,3.4c0,0.1,0.1,0.1,0.1,0.1c0.4,0.9,0.2,1.1-0.8,1.1C110.3,163,78.2,162.8,70.2,162.8z"/>
</g>
</svg>
