<svg id="Layer_1" data-name="Layer 1" xmlns="http://www.w3.org/2000/svg" viewBox="0 0 216 270"><defs><style>.cls-1{fill:#d84800;}.cls-2{fill:#f0a848;}.cls-3{fill:#f07800;}</style></defs><path class="cls-1" d="M130.77,148.88c-5,0-10.06.15-15.09,0-15.72-.55-31.44-.16-47.16-.29-1.15,0-1.36-.42-1.1-1.34.66-2.32,1.41-4.63,2-7s1.16-4.69,1.78-7c.58-2.18,1.22-4.34,1.85-6.5.46-1.6,1-3.17,1.4-4.78.47-1.82,1.11-3.61,1.51-5.43.49-2.3,1.36-4.47,1.88-6.76a10,10,0,0,1,.86-2.72c.64-1.14,0-2.27-1.72-3.47a46.27,46.27,0,0,1-12-12.85,52.58,52.58,0,0,1-4.62-8.94,48.4,48.4,0,0,1-1.94-6.37,47.4,47.4,0,0,1-1.46-15,57,57,0,0,1,1.42-8.94A47.93,47.93,0,0,1,63,39.38,50.52,50.52,0,0,1,74.28,25.31a57.55,57.55,0,0,1,11.86-7.88A54.07,54.07,0,0,1,92.54,15a61.21,61.21,0,0,1,8.37-2,30.91,30.91,0,0,1,6-.22,47.87,47.87,0,0,1,7,.17,40.82,40.82,0,0,1,6.85,1.4c1.78.59,3.59,1.09,5.37,1.74a44.9,44.9,0,0,1,9.06,4.54,48,48,0,0,1,10.33,8.75,53.47,53.47,0,0,1,8.11,12.26,45.63,45.63,0,0,1,3.1,8.27,53,53,0,0,1,1.33,6.82c.31,2.48.39,5,.46,7.44a40,40,0,0,1-1.2,10.19,49.77,49.77,0,0,1-8.18,18.35A47.93,47.93,0,0,1,139.37,103c-.24.18-.47.37-.73.54-2,1.24-2.15,2.17-1.19,4.42.62,1.44.82,3.06,1.32,4.56.76,2.31,1.1,4.72,2,7a41.06,41.06,0,0,1,1.26,4.85c.46,1.69,1.11,3.33,1.45,5s.84,3.25,1.32,4.85.74,3.4,1.38,5.07a38,38,0,0,1,1.28,4.57,29.91,29.91,0,0,0,1,3.42c.45,1.19.14,1.66-1.11,1.66H130.77Z"/><path class="cls-2" d="M108,257.19c-22.69,0-45.38,0-68.07,0-2.06,0-2.48-1.13-1.9-3a41.64,41.64,0,0,0,1.4-5c.29-1.55.93-3,1.27-4.61.39-1.77.95-3.5,1.43-5.25.43-1.54.74-3.12,1.31-4.61.4-1.05.49-2.15.84-3.21.76-2.22,1.31-4.51,1.94-6.77l.84-3.07c.49-1.75,1-3.49,1.45-5.24a25.89,25.89,0,0,0,.73-3c.1-.68.43-.82,1-.81s1.1,0,1.65,0h112c2.65,0,3.06.48,3.46,3.15a47.59,47.59,0,0,0,1.26,5,32,32,0,0,1,.88,3.19c.29,1.72,1.06,3.29,1.36,5a51.47,51.47,0,0,0,1.43,5.24c.44,1.58.91,3.15,1.35,4.73s.92,3.42,1.39,5.13.89,3.16,1.33,4.74.94,3.4,1.41,5.11c.06.22,0,.47.09.68.75,2,.47,2.44-1.63,2.44Z"/><path class="cls-3" d="M108,208.81H52.51c-1.65,0-1.92-.22-1.54-1.79.57-2.33,1.34-4.6,2-6.91s1.14-4.57,1.84-6.82c.5-1.6.84-3.25,1.38-4.85s.78-3.29,1.33-4.89c.4-1.17.6-2.4,1-3.58a1.53,1.53,0,0,1,1.69-1.18c3.07,0,72.3.45,94.9.46,2.37,0,2.45.11,2.87,2.47.33,1.88,1.12,3.66,1.5,5.51.49,2.41,1.37,4.7,1.85,7.11.32,1.56.91,3.06,1.27,4.63.39,1.72,1,3.41,1.42,5.12.27,1,.39,2,.74,3,.59,1.64.57,1.74-1.2,1.74Z"/><path class="cls-1" d="M62.13,175.16c-2.43,0-2.61-.32-1.72-2.65s1.31-4.88,2.08-7.29,1.25-4.68,2-7a34.53,34.53,0,0,0,1.23-4.62c.14-.82.53-1.19,1.34-1.17h1.64c13.63,0,66.93.31,79.95.42,1.14,0,1.48.35,1.72,1.5.49,2.37,1.34,4.65,2,7,.45,1.63.8,3.28,1.24,4.91.61,2.25,1.27,4.49,1.91,6.74,0,.08.12.15.15.23.63,1.76.35,2.17-1.48,2.17C138.81,175.38,77.44,175.16,62.13,175.16Z"/></svg>