<?xml version="1.0" encoding="utf-8"?>
<!-- Generator: Adobe Illustrator 24.3.0, SVG Export Plug-In . SVG Version: 6.00 Build 0)  -->
<svg version="1.1" id="Layer_1" xmlns="http://www.w3.org/2000/svg" xmlns:xlink="http://www.w3.org/1999/xlink" x="0px" y="0px"
	 viewBox="0 0 216 270" style="enable-background:new 0 0 216 270;" xml:space="preserve">
<style type="text/css">
	.st0{fill:none;stroke:#FB9FEF;stroke-width:4;stroke-miterlimit:10;}
	.st1{fill:#5A0B5E;}
	.st2{fill:#771A7A;}
	.st3{fill:#A82DA8;}
</style>
<path class="st0" d="M131.9,157.9c-5.3,0-10.6,0.1-15.9,0c-16.5-0.6-33-0.1-49.6-0.3c-1.2,0-1.4-0.4-1.2-1.3c0.7-2.3,1.5-4.6,2.2-7
	s1.2-4.7,1.9-7c0.6-2.2,1.3-4.3,1.9-6.5c0.5-1.6,1-3.2,1.5-4.8c0.5-1.8,1.2-3.6,1.6-5.4c0.5-2.3,1.4-4.5,2-6.8
	c0.2-1,0.5-1.9,0.9-2.7c0.7-1.1,0-2.3-1.8-3.5c-5-3.4-9.3-7.8-12.6-12.9c-1.9-2.8-3.5-5.8-4.9-9c-0.8-2.1-1.5-4.2-2-6.4
	c-1.3-4.9-1.9-9.9-1.5-15c0.2-3,0.7-6,1.5-9c1-4.3,2.6-8.3,4.8-12.1c3.1-5.3,7-10.1,11.8-14c3.8-3.1,8-5.8,12.4-7.9
	c2.2-1,4.4-1.8,6.7-2.4c2.9-0.9,5.8-1.5,8.8-2c2.1-0.3,4.2-0.3,6.3-0.2c2.4-0.1,4.9,0,7.3,0.2c2.4,0.3,4.8,0.7,7.2,1.4
	c1.9,0.6,3.8,1.1,5.6,1.7c3.3,1.2,6.5,2.7,9.5,4.5c4,2.4,7.7,5.4,10.9,8.8c3.4,3.7,6.3,7.8,8.6,12.3c1.3,2.6,2.4,5.4,3.3,8.3
	c0.6,2.2,1.1,4.5,1.4,6.8c0.3,2.5,0.4,5,0.5,7.4c0,3.4-0.4,6.9-1.2,10.2c-2.8,11.5-9.4,21.6-18.9,28.7c-0.2,0.2-0.5,0.4-0.8,0.5
	c-2.1,1.2-2.2,2.2-1.2,4.5c0.6,1.4,0.9,3.1,1.4,4.6c0.8,2.3,1.2,4.7,2.1,7c0.5,1.6,1,3.2,1.3,4.9c0.5,1.7,1.2,3.3,1.5,5
	s0.9,3.3,1.4,4.9s0.8,3.4,1.4,5.1c0.5,1.5,1,3,1.4,4.6c0.3,1.2,0.6,2.3,1,3.4c0.5,1.2,0.1,1.7-1.2,1.7h-17.5V157.9z"/>
<path class="st1" d="M108,266.3c-23.8,0-47.7,0-71.6,0c-2.2,0-2.6-1.1-2-3c0.6-1.6,1.1-3.3,1.5-5c0.3-1.6,1-3.1,1.3-4.6
	c0.4-1.8,1-3.5,1.5-5.3c0.5-1.5,0.8-3.1,1.4-4.6c0.4-1,0.5-2.1,0.9-3.2c0.8-2.2,1.4-4.5,2-6.8c0.3-1,0.6-2,0.9-3.1
	c0.5-1.8,1-3.5,1.5-5.2c0.3-1,0.6-2,0.8-3c0.1-0.7,0.5-0.8,1-0.8h119.5c2.8,0,3.2,0.5,3.6,3.1c0.3,1.7,0.8,3.4,1.3,5
	c0.3,1.1,0.7,2.1,0.9,3.2c0.3,1.7,1.1,3.3,1.4,5c0.4,1.8,0.9,3.5,1.5,5.2c0.5,1.6,1,3.1,1.4,4.7s1,3.4,1.5,5.1s0.9,3.2,1.4,4.7
	s1,3.4,1.5,5.1c0.1,0.2,0,0.5,0.1,0.7c0.8,2,0.5,2.4-1.7,2.4L108,266.3z"/>
<path class="st2" d="M108,217.9H49.7c-1.7,0-2-0.2-1.6-1.8c0.6-2.3,1.4-4.6,2.1-6.9s1.2-4.6,1.9-6.8c0.5-1.6,0.9-3.3,1.5-4.9
	s0.8-3.3,1.4-4.9c0.4-1.2,0.6-2.4,1-3.6c0.2-0.8,1-1.3,1.8-1.2c3.2,0,76,0.4,99.8,0.5c2.5,0,2.6,0.1,3,2.5c0.4,1.9,1.2,3.6,1.6,5.5
	c0.5,2.4,1.4,4.7,2,7.1c0.3,1.6,1,3.1,1.3,4.6c0.4,1.7,1,3.4,1.5,5.1c0.3,1,0.4,2,0.8,3c0.6,1.6,0.6,1.7-1.3,1.7L108,217.9z"/>
<path class="st3" d="M59.8,184.2c-2.5,0-2.7-0.3-1.8-2.6s1.4-4.9,2.2-7.3s1.3-4.7,2.1-7c0.5-1.5,1-3.1,1.3-4.6
	c0-0.7,0.6-1.2,1.3-1.2c0,0,0.1,0,0.1,0h1.7c14.3,0.1,70.4,0.3,84.1,0.4c1.2,0,1.6,0.4,1.8,1.5c0.5,2.4,1.4,4.7,2.1,7
	c0.5,1.6,0.8,3.3,1.3,4.9c0.6,2.3,1.3,4.5,2,6.8c0,0.1,0.1,0.1,0.1,0.2c0.7,1.8,0.4,2.2-1.6,2.2C140.4,184.4,75.9,184.2,59.8,184.2z
	"/>
</svg>
