<?xml version="1.0" encoding="utf-8"?>
<!-- Generator: Adobe Illustrator 24.3.0, SVG Export Plug-In . SVG Version: 6.00 Build 0)  -->
<svg version="1.1" id="Layer_1" xmlns="http://www.w3.org/2000/svg" xmlns:xlink="http://www.w3.org/1999/xlink" x="0px" y="0px"
	 viewBox="0 0 188 204" style="enable-background:new 0 0 188 204;" xml:space="preserve">
<style type="text/css">
	.st0{fill:#972688;}
	.st1{fill:#6E0D60;}
	.st2{fill:#530C49;}
	.st3{fill:#810E6F;}
	.st4{fill:#91137F;}
</style>
<g>
	<path class="st0" d="M41.2,176.7h12c1.3,0.1,1.4,0.2,1.6,1.3c0.3,1.9,1,3.8,2,5.4c0.4,0.6,0.7,0.3,0.9,0c1.1-1.2,2-2.6,2.9-4
		c0.4-0.8,0.8-1.5,1.2-2.3c0.2-0.4,0.6-0.4,1,0.3h8.2h10.5c0.7-0.8,1-0.5,1.2,0c0.7,2.1,1.5,4.1,2.1,6.2c0.4,1.3,0.5,2.7,0.7,4
		c0.7,3.7,0.5,7.3,0.6,11c0,1.2-0.8,1.8-2.2,1.8c-1.8,0-3.3-0.6-4.9-1.1c-3.2-1.1-6.2-2.7-9.4-3.9c-2.6-1-5.4-1.2-8.1-0.7
		c-2.9,0.5-5.9,0.9-8.8,0.6c-1.8-0.3-3.6-0.8-5.3-1.6c-1.2-0.6-2.4-1-3.7-1.4c-1.1-0.2-2.2-0.2-3.3,0.1c-3.1,0.7-5.6,2.3-8.3,3.6
		c-2.9,1.5-5.8,2.8-8.9,3.8c-1.2,0.5-2.5,0.8-3.8,1.1c-1.5,0.3-3.1,0.7-4.7,0.2c-1-0.3-1.2-0.8-0.8-1.6c1.2-2.4,2.6-4.8,4.1-7.1
		c3-4.7,6-9.4,8.8-14.2c0.7-1.2,1.5-1.6,3.1-1.6C33.8,176.8,37.5,176.8,41.2,176.7L41.2,176.7z"/>
	<path class="st0" d="M131,180.7c0.6-1.1,0.5-2.2,0.5-3.3c0-0.5,0.2-0.6,0.7-0.6c9.9,0,19.8,0,29.7,0c0.4,0,0.9,0.2,1.1,0.6
		c3.9,6.5,7.8,13,11.5,19.5c0.4,0.7,0.7,1.5,1.1,2.2c0.2,0.3,0.2,0.8-0.2,1.1c-0.3,0.3-0.7,0.2-1.1,0.1c-1.3-0.4-2.6-0.8-3.8-1.4
		c-2.7-1.1-5.2-2.7-8-3.7c-2.9-1-5.6-2.4-8.5-3.4c-1.6-0.5-3.2-0.9-4.9-1.2c-1.4-0.3-2.8-0.4-4.2-0.2c-1.5,0.1-3.1,0.4-4.6,0.7
		c-2.5,0.5-4.7,1.4-7.1,2.1c-1.3,0.4-2.6,0.6-4,0.6c-1.2-0.1-2.4-0.4-3.6-0.6c-1.4-0.2-2.9-0.2-4.4,0c-3.9,0.5-7.3,2.2-10.9,3.4
		c-1.1,0.4-2.3,0.8-3.4,1.1c-0.9,0.3-1.5,0-1.5-0.8c-0.1-1-0.1-2,0.2-2.9c0-0.1,0.1-0.3,0.1-0.4c0.1-1.8,0.4-3.7,0.7-5.5
		c0.3-1.9,0.7-3.8,1.2-5.7c0.5-1.7,1.1-3.4,1.8-5c0.2-0.5,0.7-0.8,1.2-0.7c5.3,0,10.6,0,16,0c0.5,0,1.1,0.2,1.4,0.6
		c0.8,1,1.6,1.9,2.5,2.9C130.7,180.4,130.8,180.5,131,180.7z"/>
	<path class="st1" d="M69.7,129.9H59.2c-1.1,0-1.3-0.2-0.7-1.1c2.8-4.4,5.5-8.7,8.3-13.1c0.3-0.5,0.8-0.8,1.4-0.7
		c2.6,0,5.2-0.1,7.8,0.1c7.1,0.3,14.2,0,21.3,0.3c9,0.3,18,0.1,26.9,0.2c0.6,0,1.1,0.2,1.4,0.7c2.8,4.6,5.6,9.2,8.4,13.7
		c0.4,0.7,0.3,1-0.7,0.9c-2.6-0.2-5.2-0.1-7.8-0.2c-1.4,0-2.8,0-4.2,0c-6.9-0.3-13.9-0.1-20.8-0.3c-5.6-0.2-11.2,0.1-16.7-0.2
		C79.2,129.9,74.7,130.2,69.7,129.9z"/>
	<path class="st2" d="M85.6,101c2.3,0,4.6-0.1,6.9,0c7.7,0.3,15.4,0.1,23.1,0.2c0.5-0.1,1.1,0.2,1.3,0.7c2.2,3.6,4.4,7.3,6.6,10.9
		c0.1,0.2,0.2,0.3,0.3,0.5c0.2,0.3,0,0.5-0.4,0.5c-0.2,0-0.4,0-0.6,0c-3,0-6.1,0.1-9.1-0.1c-5.4-0.3-10.8,0-16.2-0.3
		c-4.8-0.2-9.7,0-14.5-0.3c-4.3-0.2-8.6-0.1-12.9-0.2c-1.1,0-1.2-0.2-0.7-1c2.1-3.3,4.2-6.6,6.3-9.9c0.4-0.7,1.2-1.1,2.1-1
		C80.4,101,83,100.9,85.6,101L85.6,101z"/>
	<path class="st3" d="M86.6,144.3c1.9-2.7,4-5.2,6.2-7.6c0.9-1,2-1.9,2.8-3c0.2-0.2,0.6-0.2,0.6-0.6c-0.1-0.1-0.3-0.1-0.4-0.1
		c-4,1.1-8,2.6-11.7,4.5c-1.9,1-3.3,2.5-4.8,3.8c-0.3,0.4-0.7,0.7-1.1,1c-0.2-0.5-0.2-1,0-1.5c0.3-1.1,0.3-2.1,0.6-3.2
		c0.5-1.8,1.4-3.5,2.7-4.9c0.5-0.5,1.2-0.8,1.8-0.7c12.9,0.3,25.7,0.2,38.6,0.3c1.2,0,1.3,0.2,1,1.2c-0.2,1-0.3,2-0.3,3.1
		c0,1.4,0,2.8,0.1,4.2c0,0.2,0.1,0.6-0.1,0.7c-0.2,0.1-0.5-0.1-0.8-0.3c-2.2-1.4-4.4-2.6-6.8-3.8c-2.3-1.1-4.7-1.9-7.2-2.4
		c-2.3-0.4-4.7-0.6-7-0.5c-0.3,0-0.7-0.1-0.9,0.2s0.3,0.5,0.5,0.7c3.1,2.2,6,4.7,9,7c0.8,0.7,1.5,1.4,2.1,2.1
		c0.3,0.3,0.1,0.5-0.3,0.4c-0.6-0.1-1.2,0.1-1.6,0.5c-0.2,0.2-0.5,0.3-0.7,0.3c-1,0-1.9,0.4-2.8,0.6c-0.8,0.2-0.9,0.5-0.3,1
		s0.5,1.2,1.1,1.7c0.2,0.2,0,0.4-0.3,0.4c-0.5,0-0.9,0.1-1.4,0.1c-3.6,0-7.2,0-10.8,0c-0.2,0-0.4,0.1-0.6-0.1c1.1-0.5,2.3-1,3.4-1.4
		c1.8-0.7,3.6-1.5,5.3-2.5c0.8-0.5,1.9-0.6,2.8-1.1c0.2-0.1,0.5,0,0.5-0.3c0-0.3-0.3-0.4-0.6-0.5c-0.9-0.3-1.8-0.4-2.8-0.3
		c-1.4,0-2.8,0.1-4.2,0c-2,0-4.1,0.2-6.1,0.3c-1.5,0.2-3,0.5-4.5,1C87.2,144.4,86.8,144.6,86.6,144.3z"/>
	<path class="st4" d="M58.6,164c-0.7,1.1-1.4,2.3-2.1,3.5c-1.1,1.9-1.9,4-2.3,6.1c0,0.2-0.2,0.4-0.4,0.4c-0.3,0-0.6,0.1-0.8,0h-22
		c-0.1,0-0.2,0-0.3,0c-0.9,0-1.1-0.2-0.6-0.9l3.9-6.1c3.1-4.9,6.2-9.9,9.3-14.8c0.4-0.7,1.1-1,1.9-1c4.8,0.2,9.6,0.1,14.4,0.2
		c0.3,0,0.6,0,0.8,0.1c0.4,0.2,1.1,0.4,1.1,0.8s-0.7,0.4-1,0.6c0,0-0.1,0-0.1,0.1c-1.7,1.4-4,2.1-6.1,3c-2.5,1.2-4.8,2.9-6.6,5
		c-2.3,2.7-4.3,5.7-5.8,8.9c-0.1,0.2-0.3,0.6-0.1,0.7s0.6,0,0.8,0c2.3-0.5,4.5-1.2,6.5-2.3c1.7-0.9,3.4-2,5.2-2.9
		c1.2-0.7,2.4-1.2,3.6-1.9C58.3,163.5,58.7,163.4,58.6,164z"/>
	<path class="st4" d="M137.6,152.9c0.8,0,1.3,0,1.9,0c1.8-0.1,3.6-0.4,5.3-0.9c0.6-0.2,1.2-0.3,1.8-0.4c0.5-0.1,1.1,0.1,1.3,0.6
		l12.9,21.4c0.3,0.5,0.2,0.7-0.5,0.7c-1.4,0-2.9,0-4.3-0.1c-7.9-0.2-15.7-0.1-23.6-0.1c-1,0-1,0-1-0.9c0-0.7,0-1.4,0-2.2
		c-0.2-2-0.4-4-0.6-6c0-0.4-0.4-0.7-0.1-1.2c0.4,0.3,0.7,0.6,1,0.9c2.6,2.7,5.9,4.6,9.4,6.4c1,0.4,2,0.7,3.1,0.9
		c0.3,0.1,0.5,0,0.4-0.4c-1-2.4-2.2-4.6-3.3-6.9c-0.2-0.4-0.5-0.7-0.8-0.9c-1.3-1-2.2-2.3-3.4-3.4c-0.7-0.6-1.2-1.4-1.9-2
		c-0.1-0.1-0.3-0.2-0.1-0.4c0.2-0.1,0.4,0,0.6,0c1,0.4,2,0.9,3,1.5c1.7,0.9,3.5,1.5,5.2,2.4c1.4,0.8,2.9,1.4,4.5,1.7
		c1.1,0.2,2.2,0.5,3.2,0.8c0.2,0.1,0.4,0.1,0.5-0.1c0.1-0.2,0-0.4-0.2-0.6c-0.8-1-1.7-2-2.6-2.9c-1.7-1.7-3.6-3.3-5.7-4.7
		c-1.4-0.8-2.8-1.6-4.2-2.2C138.6,153.7,138,153.4,137.6,152.9z"/>
	<path class="st2" d="M96.4,89.1h11.7c0.7,0.2,1.4,0.6,1.7,1.2c1.7,2.8,3.4,5.5,5.1,8.2c0.4,0.7,0.3,0.8-0.5,0.8
		c-2.6,0-5.2,0.1-7.7-0.1c-5.6-0.3-11.2,0-16.8-0.3c-3.8-0.2-7.5-0.1-11.3-0.2c-0.8,0-0.9-0.1-0.5-0.8c1.5-2.4,3.1-4.8,4.6-7.2
		c0.1-0.2,0.2-0.3,0.3-0.5c0.3-0.6,0.9-0.9,1.6-0.3h11.8L96.4,89.1z"/>
	<path class="st4" d="M104.9,163.7c-1.5,2.4-2.9,4.8-4.1,7.3c-0.4,0.8-0.7,1.6-1.1,2.4c-0.1,0.5-0.6,0.8-1.1,0.8c-1.8,0-3.6,0-5.4,0
		c-0.6,0-1.1-0.3-1.3-0.9c-1.7-3.6-3.9-7-6.7-9.9c-0.1-0.1-0.3-0.3-0.2-0.4c0.1-0.2,0.3,0,0.5,0c1.2,0.2,2.5,0.3,3.8,0.3
		c0.9,0,0.9-0.2,0.6-0.9s-0.7-1.4-1-2.1c-0.1-0.1-0.1-0.3,0.1-0.4c1.4,0.4,2.8,0.2,4.2,0.3c1.7,0.1,3.4-0.1,5.1-0.6
		c0.8-0.3,1-0.2,0.4-1c-1.2-1.8-3.1-2.9-4.9-4.2c-1.3-1-2.6-1.8-4.1-2.5c-0.1,0-0.2-0.2-0.3-0.2c0.1-0.2,0.4-0.1,0.6-0.1
		c4.7,0.1,9.4,0.1,14,0.2c0.2,0,0.5-0.1,0.6,0.2c0,0.2-0.2,0.3-0.4,0.5c-0.7,0.6-1.5,1.1-2.3,1.5c-0.4,0.2-0.9,0.5-1.2,0.8
		c-1.1,1-0.7,1.8,0.6,2.2c1.1,0.4,2.3,0.6,3.5,0.6c0.8,0,1.6,0.1,2.3,0.3l0.5,0.3c0.9,0.6,0.8,0.8,0.3,1.4c-1,1.1-1.9,2.4-2.6,3.6
		C104.9,163.2,104.8,163.4,104.9,163.7z"/>
	<path class="st3" d="M55.9,149.4c-0.2,0-0.4,0.1-0.6,0.1l-9.1-0.1c-1,0-0.9-0.3-0.1-1.3c1.6-3.1,3.6-6,5.7-8.8
		c1.2-2.2,2.8-4.3,4.1-6.6c0.3-0.5,0.9-0.8,1.4-0.7c5.7,0.1,11.5,0.3,17.2,0.2c0.2,0,0.5-0.1,0.6,0.2c0.1,0.2-0.1,0.3-0.3,0.4
		c-1.8,2-3.3,4.2-4.5,6.6c-0.1,0.2-0.3,0.4-0.5,0.6c-1.3-1.3-2.9-2.2-4.7-2.6c-0.8-0.2-0.8,0.5-0.9,0.8c-0.7,2.1-0.7,4.2-0.7,6.4
		c0,0.5,0.1,0.8-0.8,0.6c-1.1-0.3-2.4-0.5-3.6-0.7c-2-0.3-3.9-0.3-5.9-0.2c-1,0-1.3,0.5-0.8,1.2c0.8,1.2,1.7,2.3,2.7,3.2
		C55.5,148.9,55.7,149.1,55.9,149.4z"/>
	<path class="st2" d="M96.1,87.4h-9.7c-1.1,0-1.2-0.2-0.7-1c1.9-2.9,3.8-5.8,5.6-8.7c1.2-1.9,2.5-3.7,3.7-5.5
		c0.2-0.3,0.4-0.5,0.6-0.7c0.5-0.6,1.4-0.7,2.1-0.2c0.1,0.1,0.2,0.2,0.3,0.3c0.6,0.8,1.2,1.6,1.7,2.4c2.1,3.4,4.2,6.9,6.3,10.4
		c0.5,0.8,1,1.6,1.5,2.4c0.4,0.6,0.1,1-0.6,0.9C103.2,87.2,99.5,87.6,96.1,87.4z"/>
	<path class="st3" d="M143.9,146.3c-2.5-0.7-5.2-1-7.9-0.7c0.4-0.6,0.9-1.1,1.4-1.5c0.7-0.7,1.4-1.4,2-2.1c0.3-0.3,0.3-0.5-0.2-0.6
		c-1.5-0.5-3.1-0.6-4.7-0.3c-0.8,0.1-1.5,0.3-2.2,0.5c-0.4,0.1-0.5-0.2-0.6-0.4c-1-2.2-2.2-4.3-3.6-6.2c-0.5-0.7-1.1-1.3-1.7-1.9
		c-0.3-0.4-0.2-0.6,0.3-0.6c0.7-0.1,1.4-0.1,2,0.1c0.5,0.2,1.1-0.1,1.7-0.1c1.4,0,2.7,0,4,0c0.6,0,1.2,0.3,1.5,0.9
		c2.5,4.2,5.1,8.4,7.7,12.5C143.9,146,144,146.2,143.9,146.3z"/>
	<path class="st4" d="M72,174.1h-7.6c-1.1,0.2-1.1,0.1-0.7-0.7c1.4-2.7,3.1-5.3,4.9-7.7c0.1-0.1,0.2-0.3,0.3-0.4
		c0.1-0.1,0.2-0.2,0.4-0.2c0.2,0,0.1,0.2,0.1,0.3c-0.1,1.1,0.1,2.2,0.3,3.2c0.3,0.9,0.7,1.8,1.1,2.6c0.2,0.5,0.5,0.3,0.7,0.1
		c0.8-0.7,1.4-1.5,1.8-2.5c0.6-1,1.1-2.1,1.6-3.2c0.1-0.2,0.3-0.4,0.4-0.4c0.2,0,0.3,0.2,0.5,0.4c1.6,2.5,3.2,5.1,4.9,7.5
		c0.2,0.2,0.5,0.5,0.3,0.8c-0.2,0.3-0.6,0.2-1,0.8H72V174.1z"/>
	<path class="st4" d="M118.4,174.1h-6.6c-0.6,0.3-0.9,0.2-0.6-0.4c1-1.9,1.9-3.9,2.9-5.9c0.3-0.7,0.7-1.4,1.1-2
		c0.1-0.2,0.2-0.6,0.6-0.5c0.4,0.1,0.4,0.4,0.6,0.6c0.4,1.2,0.9,2.3,1.5,3.4c0.3,0.6,0.5,0.4,0.8,0c0.9-0.9,1.6-1.9,2.2-3
		c0.1-0.2,0.2-0.3,0.4-0.5c0.2-0.1,0.6-0.2,0.6,0.2c0.1,1.1,0.9,2.1,1.3,3.2c0.6,1.6,1.4,3.1,2.2,4.6c0.2,0.4,0.1,0.6-0.5,1.1h-6.7
		L118.4,174.1z"/>
	<path class="st0" d="M95.8,183.7c-0.7-2.2-1.3-4.2-2.2-6.2c-0.3-0.7-0.2-0.8,0.7-0.8h3.1c0.9,0,1,0.1,0.7,0.8
		c-0.4,0.9-0.6,1.7-0.9,2.6C96.8,181.4,96.4,182.6,95.8,183.7z"/>
	<path class="st1" d="M104.9,164c0-0.2,0.1-0.5,0.2-0.7c0.8-1.3,1.7-2.5,2.6-3.6c0.5-0.6,0.7-0.7-0.3-1.4l-0.5-0.3
		c0.7-0.1,1,0.6,1.7,0.6c0.2,0,0.1,0.2,0,0.3C107.3,160.5,106.2,162.3,104.9,164C104.9,163.9,104.9,163.9,104.9,164z"/>
	<path class="st2" d="M58.6,164.2c0.1-0.6-0.3-0.5-0.8-0.4c0.1-0.1,0.3-0.3,0.4-0.4c0.3-0.1,0.7-0.5,1-0.2c0.3,0.3-0.1,0.6-0.5,0.9
		L58.6,164.2z"/>
	<path class="st2" d="M86.6,144.4c0.3,0.3,0.7,0.2,1,0.2c-0.3,0.4-0.9,0.3-1.3,0.5c-0.1,0.1-0.3-0.1-0.2-0.2S86.3,144.4,86.6,144.4z
		"/>
</g>
</svg>
